<?xml version="1.0" standalone="no"?>
<!DOCTYPE svg PUBLIC "-//W3C//DTD SVG 20010904//EN"
 "http://www.w3.org/TR/2001/REC-SVG-20010904/DTD/svg10.dtd">
<svg version="1.0" xmlns="http://www.w3.org/2000/svg"
 width="181.000000pt" height="94.000000pt" viewBox="0 0 181.000000 94.000000"
 preserveAspectRatio="xMidYMid meet">

<g transform="translate(0.000000,94.000000) scale(0.100000,-0.100000)"
fill="#000000" stroke="none">
<path d="M142 788 c-45 -58 -84 -212 -80 -321 2 -58 7 -81 15 -80 7 2 17 -6
23 -18 11 -19 10 -20 -10 -9 l-21 11 18 -32 c10 -17 24 -42 31 -55 10 -18 22
-24 46 -24 38 0 64 24 96 90 12 25 32 65 45 90 13 25 24 49 24 54 1 16 -41
-27 -86 -89 -79 -106 -93 -105 -111 8 -9 59 -8 79 10 150 33 132 61 169 70 92
2 -19 9 -31 21 -33 14 -3 17 4 17 33 0 20 7 50 16 67 16 31 16 32 -10 55 -30
26 -97 32 -114 11z m-58 -309 c-3 -95 -12 -98 -13 -5 -1 42 3 76 8 76 4 0 7
-32 5 -71z"/>
<path d="M1012 738 c-48 -10 -97 -22 -110 -28 -13 -5 -21 -6 -18 -1 3 5 -1 14
-9 21 -11 9 -27 9 -63 1 -60 -13 -162 -50 -162 -59 1 -16 17 -31 43 -37 l28
-7 -2 -87 c-1 -47 -6 -120 -11 -161 -8 -62 -14 -79 -35 -96 l-25 -21 23 -17
c33 -22 52 -20 80 10 13 14 36 32 52 40 50 26 30 54 -40 54 l-35 0 7 52 c4 28
14 58 21 66 8 7 14 28 14 45 0 18 3 56 7 86 5 45 10 56 37 72 l31 19 21 -28
22 -27 48 17 c27 9 50 16 52 14 2 -2 -2 -42 -8 -89 -7 -47 -10 -94 -7 -104 3
-12 5 -9 6 10 0 15 5 27 10 27 5 0 12 10 14 23 4 19 4 18 6 -5 0 -16 -3 -28
-9 -28 -5 0 -10 -8 -10 -17 0 -15 2 -15 9 -4 7 11 10 10 13 -5 7 -26 11 -11
34 110 22 114 17 111 144 118 39 3 72 7 75 9 2 3 2 14 -1 25 -5 18 -13 20 -85
19 -44 0 -119 -8 -167 -17z"/>
<path d="M390 663 c-27 -88 -46 -204 -55 -330 -6 -88 -5 -103 8 -103 26 0 45
45 53 121 4 41 12 77 18 81 6 4 26 8 45 8 l34 0 -7 -78 c-7 -93 0 -148 19
-132 13 10 34 82 33 110 0 31 33 178 59 259 l27 83 -28 25 c-16 13 -31 22 -34
19 -3 -3 -17 -54 -33 -113 -24 -94 -30 -109 -51 -114 -12 -3 -31 -3 -41 -1
-16 4 -18 11 -12 41 4 20 18 62 32 94 25 55 25 58 8 77 -34 37 -52 26 -75 -47z"/>
<path d="M752 425 c0 -16 2 -22 5 -12 2 9 2 23 0 30 -3 6 -5 -1 -5 -18z"/>
<path d="M971 431 c-8 -15 -11 -42 -8 -69 3 -24 1 -39 -3 -33 -4 8 -10 -3 -13
-26 -4 -21 -9 -50 -13 -64 -5 -23 -2 -27 21 -33 50 -13 62 16 70 167 3 75 -5
100 -20 55 l-7 -23 -7 25 -7 25 -13 -24z"/>
<path d="M100 140 c0 -16 5 -30 10 -30 6 0 10 8 10 18 1 16 1 16 11 0 15 -27
29 -21 29 12 0 17 -4 30 -10 30 -5 0 -10 -5 -10 -12 0 -9 -3 -9 -12 0 -19 19
-28 14 -28 -18z"/>
<path d="M214 156 c-10 -26 4 -48 28 -44 17 2 23 10 23 28 0 18 -6 26 -23 28
-13 2 -25 -3 -28 -12z m36 -16 c0 -11 -4 -20 -10 -20 -5 0 -10 9 -10 20 0 11
5 20 10 20 6 0 10 -9 10 -20z"/>
<path d="M318 163 c6 -2 12 -16 12 -29 0 -13 5 -24 10 -24 6 0 10 11 10 24 0
13 6 27 13 29 6 3 -4 5 -23 5 -19 0 -29 -2 -22 -5z"/>
<path d="M466 162 c7 -4 14 -18 17 -32 l4 -25 2 27 c0 14 7 29 14 31 6 3 -1 6
-18 6 -16 0 -25 -3 -19 -7z"/>
<path d="M560 144 c-6 -14 -10 -27 -10 -28 0 -1 14 -3 30 -3 17 0 30 2 30 3 0
15 -22 54 -30 54 -6 0 -15 -12 -20 -26z m25 -4 c3 -5 1 -10 -4 -10 -6 0 -11 5
-11 10 0 6 2 10 4 10 3 0 8 -4 11 -10z"/>
<path d="M661 143 c-1 -28 2 -33 22 -32 15 1 17 3 5 6 -9 2 -19 16 -21 31 -4
24 -4 24 -6 -5z"/>
<path d="M740 140 c0 -16 5 -30 10 -30 6 0 10 5 10 12 0 9 3 9 12 0 17 -17 33
-15 18 3 -10 12 -10 18 0 30 15 18 -1 20 -18 3 -9 -9 -12 -9 -12 0 0 7 -4 12
-10 12 -5 0 -10 -13 -10 -30z"/>
<path d="M977 163 c-4 -3 -7 -17 -7 -30 0 -17 6 -23 22 -23 21 0 21 0 2 15
-19 15 -19 15 0 30 15 12 16 15 5 15 -9 0 -19 -3 -22 -7z"/>
<path d="M1060 140 c0 -31 20 -43 20 -12 1 15 2 15 15 -2 14 -19 15 -18 15 15
0 27 -3 31 -11 19 -8 -11 -12 -12 -16 -2 -9 23 -23 12 -23 -18z"/>
<path d="M1160 140 c0 -16 5 -30 10 -30 6 0 10 14 10 30 0 17 -4 30 -10 30 -5
0 -10 -13 -10 -30z"/>
<path d="M1236 162 c7 -4 14 -18 17 -32 l4 -25 2 27 c0 14 7 29 14 31 6 3 -1
6 -18 6 -16 0 -25 -3 -19 -7z"/>
<path d="M1410 155 c-17 -21 -5 -45 22 -44 17 1 18 2 6 6 -10 2 -18 13 -18 23
0 10 8 21 18 23 14 4 14 5 1 6 -9 0 -22 -6 -29 -14z"/>
<path d="M1500 141 c0 -33 1 -34 15 -15 13 17 14 17 15 2 0 -31 20 -19 20 12
0 30 -14 41 -23 18 -4 -10 -8 -9 -16 2 -8 12 -11 8 -11 -19z"/>
<path d="M1606 148 c-8 -33 -9 -33 23 -34 28 -1 28 0 19 27 -12 35 -33 38 -42
7z"/>
<path d="M1698 163 c6 -2 12 -16 12 -29 0 -13 5 -24 10 -24 6 0 10 11 10 24 0
13 6 27 13 29 6 3 -4 5 -23 5 -19 0 -29 -2 -22 -5z"/>
<path d="M1328 133 c7 -3 16 -2 19 1 4 3 -2 6 -13 5 -11 0 -14 -3 -6 -6z"/>
<path d="M851 114 c0 -11 3 -14 6 -6 3 7 2 16 -1 19 -3 4 -6 -2 -5 -13z"/>
</g>
</svg>
